<svg xmlns="http://www.w3.org/2000/svg" width="32" height="32" viewBox="0 0 32 32">
  <defs>
    <style>
      .cls-1, .cls-2 {
        fill: #f5f5f5;
      }

      .cls-1, .cls-3, .cls-4 {
        fill-rule: evenodd;
      }

      .cls-3 {
        fill: #121212;
      }
    </style>
  </defs>
  <path id="Rectángulo_1" data-name="Rectángulo 1" class="cls-1" d="M7.616,3.082a1.065,1.065,0,0,1,1.159.58s4.261,15.977,4.4,17.233a7.753,7.753,0,0,0-2.28.5c-0.106-.191-2.319-8.938-3.787-14.567a1.337,1.337,0,0,0-1-.85C5.072,6.1,3.079,6.809,2.091,6.83A1.167,1.167,0,0,1,1.55,4.667,50.94,50.94,0,0,1,7.616,3.082Z"/>
  <path id="Rectángulo_2" data-name="Rectángulo 2" class="cls-1" d="M17.972,23.716c0.23-.041,8.862-2.269,11.592-2.975a0.541,0.541,0,0,1,.7.27,8.542,8.542,0,0,1,.425,1.546,0.638,0.638,0,0,1-.657.58c-2.74.668-10.559,2.727-11.437,2.9A5.077,5.077,0,0,0,17.972,23.716Z"/>
  <circle id="Elipse_1" data-name="Elipse 1" class="cls-2" cx="13.328" cy="26.156" r="4.578"/>
  <circle id="Elipse_1_copia" data-name="Elipse 1 copia" cx="13.328" cy="26.141" r="1.516"/>
  <path id="Rectángulo_redondeado_1" data-name="Rectángulo redondeado 1" class="cls-1" d="M13.219,11.815L26.163,8.492a0.945,0.945,0,0,1,1.043.541l2.357,9.274a0.886,0.886,0,0,1-.425,1.082l-12.017,3.13a4.642,4.642,0,0,0-2.357-1.391l-2.125-8.269A0.939,0.939,0,0,1,13.219,11.815Z"/>
  <path id="Rectángulo_4" data-name="Rectángulo 4" class="cls-3" d="M18.176,10.936l3.444-.879,0.764,3-3.444.879Z"/>
  <path id="Rectángulo_redondeado_2" data-name="Rectángulo redondeado 2" class="cls-1" d="M12.717,3.082L22.3,0.609A1.3,1.3,0,0,1,23.69,1.5l1.816,7.148c-1.553.435-10.666,2.92-11.631,2.975-0.041-.193-1.855-7.3-1.855-7.3A1.143,1.143,0,0,1,12.717,3.082Z"/>
  <path id="Rectángulo_redondeado_3" data-name="Rectángulo redondeado 3" class="cls-4" d="M13.27,3.651c0.154-.041,2.963-0.762,2.963-0.762s0.517,2.109.541,2.2a0.384,0.384,0,0,0,.425.232c0.416-.111,2.135-0.585,2.55-0.7a0.378,0.378,0,0,0,.077-0.348L19.285,2.116l3.13-.811a0.606,0.606,0,0,1,.618.425l1.739,6.762L14.494,11.12,12.755,4.435A0.651,0.651,0,0,1,13.27,3.651Z"/>
</svg>
